<?xml version="1.0" encoding="UTF-8" standalone="no"?>
<svg
        xmlns:dc="http://purl.org/dc/elements/1.1/"
        xmlns:cc="http://creativecommons.org/ns#"
        xmlns:rdf="http://www.w3.org/1999/02/22-rdf-syntax-ns#"
        xmlns="http://www.w3.org/2000/svg"
        viewBox="0 0 1849.3333 489.33334"
        height="489.33334"
        width="1849.3333"
        xml:space="preserve"
        id="svg2"
        version="1.1"><metadata
     id="metadata8"><rdf:RDF><cc:Work
         rdf:about=""><dc:format>image/svg+xml</dc:format><dc:type
           rdf:resource="http://purl.org/dc/dcmitype/StillImage" /></cc:Work></rdf:RDF></metadata><defs
     id="defs6"><clipPath
       id="clipPath18"
       clipPathUnits="userSpaceOnUse"><path
         id="path16"
         d="M 0,367 H 1387 V 0 H 0 Z" /></clipPath></defs><g
     transform="matrix(1.3333333,0,0,-1.3333333,0,489.33333)"
     id="g10"><g
       id="g12"><g
         clip-path="url(#clipPath18)"
         id="g14"><g
           transform="translate(280.8872,196.6411)"
           id="g20"><path
             id="path22"
             style="fill:#ffc823;fill-opacity:1;fill-rule:nonzero;stroke:none"
             d="m 0,0 -47.448,-47.448 c -1.643,-1.643 -3.8,-2.465 -5.952,-2.465 -2.153,0 -4.309,0.822 -5.953,2.465 -3.286,3.286 -3.286,8.617 0,11.905 l 47.449,47.447 c 3.286,3.287 8.618,3.287 11.904,0 C 3.287,8.618 3.287,3.286 0,0 m 0,-45.911 -24.495,-24.491 c -1.643,-1.642 -3.8,-2.464 -5.952,-2.464 -2.153,0 -4.309,0.822 -5.952,2.464 -3.287,3.291 -3.287,8.618 0,11.905 l 24.495,24.491 c 3.286,3.286 8.618,3.286 11.904,0 3.287,-3.29 3.287,-8.619 0,-11.905 m -76.354,18.952 c -2.152,0 -4.309,0.821 -5.952,2.464 -3.286,3.287 -3.286,8.618 0,11.905 l 62.237,62.24 c 3.286,3.287 8.618,3.287 11.904,0 3.287,-3.286 3.287,-8.618 0,-11.904 l -62.236,-62.241 c -1.643,-1.643 -3.8,-2.464 -5.953,-2.464 m -75.29,-29.535 c -1.711,-1.711 -3.953,-2.567 -6.196,-2.567 -2.242,0 -4.484,0.856 -6.196,2.567 l -38.922,38.923 c -3.424,3.424 -3.424,8.969 0,12.393 3.423,3.423 8.968,3.423 12.392,0 l 32.726,-32.727 95.142,95.138 c 3.424,3.423 8.969,3.423 12.392,0 3.424,-3.423 3.424,-8.969 0,-12.393 z M 56.909,125.383 c -43.02,43.021 -153.776,47.234 -254.373,-40.012 -94.028,-81.55 -92.499,-179.746 -19.306,-233.666 68.339,-50.344 162.139,-58.5 233.666,19.305 86.876,94.501 83.034,211.353 40.013,254.373" /></g><g
           transform="translate(508.5303,125.3213)"
           id="g24"><path
             id="path26"
             style="fill:#282e68;fill-opacity:1;fill-rule:nonzero;stroke:none"
             d="m 0,0 c -36.343,-12.16 -68.548,13.933 -68.548,49.245 0,28.818 22.192,51.396 50.52,51.396 26.08,0 53.87,-20.066 51.226,-57.117 C 31.788,23.772 18.779,6.283 0,0 m 33.373,97.034 c 0,-0.304 -0.371,-0.421 -0.55,-0.176 -11.179,15.362 -30.639,24.68 -52.312,24.68 -40.381,0 -70.832,-31.204 -70.832,-72.584 0,-40.866 31.113,-72.879 70.832,-72.879 21.714,0 41.173,9.398 52.311,24.896 0.178,0.248 0.551,0.131 0.551,-0.174 v -14.054 c 0,-4.277 3.467,-7.745 7.744,-7.745 h 6.284 c 4.278,0 7.745,3.468 7.745,7.745 V 110.87 c 0,4.277 -3.467,7.745 -7.745,7.745 h -6.284 c -4.277,0 -7.744,-3.468 -7.744,-7.745 z" /></g><g
           transform="translate(801.3584,225.9624)"
           id="g28"><path
             id="path30"
             style="fill:#282e68;fill-opacity:1;fill-rule:nonzero;stroke:none"
             d="m 0,0 c 26.002,0 43.877,-15.882 47.085,-41.6 0.024,-0.192 -0.128,-0.369 -0.321,-0.369 h -94.941 c -0.196,0 -0.349,0.183 -0.32,0.377 C -44.553,-15.502 -26.561,0 0,0 m 0,20.897 c -41.213,0 -71.127,-30.404 -71.127,-72.293 0,-42.396 29.914,-73.17 71.127,-73.17 24.111,0 45.24,10.341 58.052,28.034 2.543,3.512 1.05,8.504 -2.896,10.303 l -4.958,2.262 c -3.643,1.661 -7.84,0.525 -10.418,-2.539 -9.131,-10.85 -23.322,-17.162 -39.195,-17.162 -26.921,0 -45.677,16.098 -49.393,42.179 -0.027,0.194 0.126,0.375 0.322,0.375 H 62.821 c 3.111,0 5.669,2.444 5.822,5.55 0.079,1.606 0.141,3.189 0.141,4.168 0,43.24 -27.643,72.293 -68.784,72.293" /></g><g
           transform="translate(959.1221,223.0811)"
           id="g32"><path
             id="path34"
             style="fill:#282e68;fill-opacity:1;fill-rule:nonzero;stroke:none"
             d="m 0,0 c 36.377,11.801 68.503,-14.223 68.503,-49.392 0,-28.818 -22.318,-51.395 -50.815,-51.395 -26.127,0 -53.976,20.145 -51.205,57.338 C -32.041,-23.641 -18.895,-6.13 0,0 m 19.15,23.778 c -21.502,0 -41.316,-9.674 -52.308,-25.096 -0.177,-0.249 -0.55,-0.131 -0.55,0.173 v 14.712 c 0,4.025 -3.263,7.288 -7.287,7.288 h -7.198 c -4.026,0 -7.288,-3.263 -7.288,-7.288 v -191.42 c 0,-4.025 3.262,-7.288 7.288,-7.288 h 7.198 c 4.024,0 7.287,3.263 7.287,7.288 v 80.89 c 0,0.305 0.373,0.422 0.551,0.174 11.137,-15.498 30.597,-24.896 52.307,-24.896 40.38,0 70.831,31.205 70.831,72.584 0,41.548 -30.451,72.879 -70.831,72.879" /></g><g
           transform="translate(1103.1563,298.3237)"
           id="g36"><path
             id="path38"
             style="fill:#282e68;fill-opacity:1;fill-rule:nonzero;stroke:none"
             d="m 0,0 h -4.404 c -4.716,0 -8.539,-3.823 -8.539,-8.539 v -45.532 c 0,-0.175 -0.142,-0.317 -0.316,-0.317 H -29.26 c -4.716,0 -8.539,-3.822 -8.539,-8.538 v -2.063 c 0,-4.716 3.823,-8.539 8.539,-8.539 h 16.001 c 0.174,0 0.316,-0.142 0.316,-0.316 v -111.621 c 0,-4.716 3.823,-8.539 8.539,-8.539 H 0 c 4.717,0 8.539,3.823 8.539,8.539 v 111.621 c 0,0.174 0.142,0.316 0.316,0.316 h 22.433 c 4.716,0 8.539,3.823 8.539,8.539 v 2.063 c 0,4.716 -3.823,8.538 -8.539,8.538 H 8.855 c -0.174,0 -0.316,0.142 -0.316,0.317 V -8.539 C 8.539,-3.823 4.717,0 0,0" /></g><g
           transform="translate(1179.7637,307.6826)"
           id="g40"><path
             id="path42"
             style="fill:#282e68;fill-opacity:1;fill-rule:nonzero;stroke:none"
             d="m 0,0 c -8.89,0 -15.855,-6.579 -15.855,-14.979 0,-8.101 7.113,-14.688 15.855,-14.688 9.208,0 16.149,6.313 16.149,14.688 C 16.149,-6.44 9.208,0 0,0" /></g><g
           transform="translate(1177.9951,104.3193)"
           id="g44"><path
             id="path46"
             style="fill:#282e68;fill-opacity:1;fill-rule:nonzero;stroke:none"
             d="m 0,0 h 3.541 c 5.034,0 9.116,4.082 9.116,9.117 V 130.5 c 0,5.035 -4.082,9.117 -9.116,9.117 H 0 c -5.035,0 -9.116,-4.082 -9.116,-9.117 V 9.117 C -9.116,4.082 -5.035,0 0,0" /></g><g
           transform="translate(1297.9014,122.2939)"
           id="g48"><path
             id="path50"
             style="fill:#282e68;fill-opacity:1;fill-rule:nonzero;stroke:none"
             d="m 0,0 c -29.611,0 -51.105,21.984 -51.105,52.272 0,27.602 18.461,48.188 44.737,51.054 C 24.707,106.716 52.501,81.333 51.36,50.094 50.313,21.386 28.586,0 0,0 m 0,124.565 c -42.229,0 -72.879,-30.403 -72.879,-72.293 0,-38.742 27.025,-68.634 64.16,-72.698 47.821,-5.233 88.293,37.59 80.953,85.132 C 66.777,100.045 38.077,124.565 0,124.565" /></g><g
           transform="translate(702.502,243.936)"
           id="g52"><path
             id="path54"
             style="fill:#282e68;fill-opacity:1;fill-rule:nonzero;stroke:none"
             d="m 0,0 h -10.809 c -3.433,0 -6.652,-1.667 -8.633,-4.47 l -28.25,-44.042 c -0.126,-0.177 -0.389,-0.178 -0.516,-10e-4 l -28.54,44.081 C -78.732,-1.651 -81.938,0 -85.354,0 h -10.827 c -4.302,0 -6.792,-4.876 -4.269,-8.361 l 39.371,-58.47 c 0.08,-0.111 0.08,-0.26 0,-0.371 l -45.234,-64.053 c -2.523,-3.486 -0.033,-8.362 4.269,-8.362 h 10.287 c 3.386,0 6.568,1.623 8.557,4.365 l 34.99,49.767 c 0.126,0.175 0.387,0.174 0.512,-0.001 l 34.417,-49.711 c 1.985,-2.773 5.187,-4.42 8.598,-4.42 H 5.899 c 4.291,0 6.784,4.855 4.284,8.343 l -45,64.363 c -0.079,0.111 -0.079,0.26 10e-4,0.369 L 4.271,-8.357 C 6.79,-4.872 4.3,0 0,0" /></g></g></g></g></svg>