<?xml version="1.0" encoding="UTF-8" standalone="no"?>
<svg
        xmlns:dc="http://purl.org/dc/elements/1.1/"
        xmlns:cc="http://creativecommons.org/ns#"
        xmlns:rdf="http://www.w3.org/1999/02/22-rdf-syntax-ns#"
        xmlns="http://www.w3.org/2000/svg"
        xmlns:xlink="http://www.w3.org/1999/xlink"
        id="svg74"
        version="1.1"
        viewBox="0 0 176.28113 24"
        height="24"
        width="176.28113">
  <metadata
     id="metadata78">
    <rdf:RDF>
      <cc:Work
         rdf:about="">
        <dc:format>image/svg+xml</dc:format>
        <dc:type
           rdf:resource="http://purl.org/dc/dcmitype/StillImage" />
        <dc:title></dc:title>
      </cc:Work>
    </rdf:RDF>
  </metadata>
  <defs
     id="defs70">
    <path
       d="m 90.134,126.48 c 0,-2.294 -1.48,-3.911 -3.753,-3.911 -2.273,0 -3.754,1.617 -3.754,3.911 0,2.295 1.48,3.912 3.754,3.912 2.272,0 3.753,-1.617 3.753,-3.912 z m -7.481,4.315 H 82.6 v 1.806 H 80 V 114 h 2.6 v 8.131 h 0.053 c 0.77,-1.328 2.123,-2.205 4.139,-2.205 3.236,0 5.969,2.444 5.969,6.537 0,4.092 -2.733,6.537 -5.97,6.537 -2.015,0 -3.369,-0.877 -4.138,-2.205 z m 11.984,-4.315 c 0,-4.081 2.733,-6.52 5.97,-6.52 2.016,0 3.369,0.875 4.138,2.2 h 0.054 v -1.802 h 2.6 v 12.245 h -2.6 V 130.8 h -0.054 c -0.769,1.325 -2.122,2.2 -4.138,2.2 -3.237,0 -5.97,-2.438 -5.97,-6.52 z m 10.51,0 c 0,-2.294 -1.48,-3.911 -3.754,-3.911 -2.273,0 -3.753,1.617 -3.753,3.911 0,2.295 1.48,3.912 3.753,3.912 2.273,0 3.753,-1.617 3.753,-3.912 z m 16.889,-1.394 v 7.541 h -2.596 v -7.09 c 0,-2.097 -1.06,-2.974 -2.809,-2.974 -1.907,0 -3.258,1.142 -3.258,4.196 v 5.868 h -2.597 V 120.36 h 2.597 v 1.859 h 0.053 c 0.795,-1.407 2.12,-2.257 4,-2.257 2.623,0 4.61,1.407 4.61,5.125 z m 2.627,1.377 c 0,-4.093 2.733,-6.537 5.97,-6.537 2.016,0 3.369,0.877 4.139,2.205 h 0.053 V 114 h 2.6 v 18.601 h -2.6 v -1.806 h -0.053 c -0.77,1.328 -2.123,2.205 -4.14,2.205 -3.236,0 -5.969,-2.445 -5.969,-6.537 z m 10.51,0.017 c 0,-2.294 -1.481,-3.911 -3.754,-3.911 -2.273,0 -3.753,1.617 -3.753,3.911 0,2.295 1.48,3.912 3.753,3.912 2.273,0 3.753,-1.617 3.753,-3.912 z m 4.503,5.221 1.167,-2.305 c 1.14,0.662 2.44,1.166 3.898,1.166 1.246,0 1.91,-0.371 1.91,-1.14 0,-0.503 -0.266,-0.874 -1.3,-1.378 l -2.227,-1.087 c -1.857,-0.874 -2.573,-2.12 -2.573,-3.524 0,-2.253 1.671,-3.472 4.349,-3.472 1.406,0 2.943,0.37 4.243,0.954 l -1.06,2.253 c -0.93,-0.398 -2.07,-0.796 -3.263,-0.796 -1.14,0 -1.511,0.372 -1.511,0.928 0,0.583 0.345,0.954 1.405,1.458 l 2.28,1.086 c 1.592,0.742 2.44,1.802 2.44,3.446 0,2.491 -1.909,3.71 -4.773,3.71 -1.75,0 -3.58,-0.477 -4.985,-1.299 z m 12.386,0.926 h 2.627 v -12.294 h -2.627 z m 17.264,-7.541 v 7.541 h -2.596 v -7.09 c 0,-2.097 -1.06,-2.974 -2.808,-2.974 -1.907,0 -3.26,1.142 -3.26,4.196 v 5.868 h -2.595 V 120.36 h 2.596 v 1.859 h 0.053 c 0.795,-1.407 2.12,-2.257 4.001,-2.257 2.623,0 4.61,1.407 4.61,5.125 z m 6.562,-2.508 v 6.4 c 0,0.873 0.364,1.27 1.249,1.27 h 0.624 v 2.38 h -1.17 c -2.109,0 -3.254,-1.138 -3.254,-3.148 v -6.902 h -2.134 v -2.195 h 2.134 v -4.893 h 2.55 v 4.893 h 2.447 v 2.195 z m 17.084,3.902 c 0,3.764 -2.884,6.52 -6.756,6.52 -3.872,0 -6.756,-2.756 -6.756,-6.52 0,-3.763 2.884,-6.52 6.756,-6.52 3.872,0 6.756,2.757 6.756,6.52 z m -10.51,0 c 0,2.373 1.614,3.912 3.942,3.912 2.328,0 3.94,-1.539 3.94,-3.912 0,-2.373 -1.612,-3.911 -3.94,-3.911 -2.328,0 -3.941,1.538 -3.941,3.911 z m 30.026,-6.147 -4.09,12.294 h -2.376 l -2.904,-8.807 -2.929,8.807 h -2.375 l -4.092,-12.294 h 2.851 l 2.454,8.862 2.825,-8.862 h 2.507 l 2.824,8.862 2.455,-8.862 z M 226,125.086 v 7.541 h -2.596 v -7.09 c 0,-2.097 -1.06,-2.974 -2.809,-2.974 -1.907,0 -3.259,1.142 -3.259,4.196 v 5.868 H 214.74 V 120.36 h 2.596 v 1.859 h 0.054 c 0.795,-1.407 2.12,-2.257 4,-2.257 2.623,0 4.61,1.407 4.61,5.125 z m -70.56,-9.223 a 1.87,1.87 0 0 1 -1.877,1.862 1.87,1.87 0 0 1 -1.877,-1.862 1.87,1.87 0 0 1 1.877,-1.863 1.87,1.87 0 0 1 1.877,1.863 z"
       id="a" />
  </defs>
  <use
     height="100%"
     width="100%"
     y="0"
     x="0"
     style="fill:#2d2d2d;fill-rule:evenodd"
     id="use72"
     xlink:href="#a"
     transform="translate(-49.718873,-109.95353)" />
  <path
     style="fill:#00b4b3;fill-rule:evenodd"
     d="M 18.783,0 H 24 v 12 h -5.217 z m -6.261,5 h 5.217 v 7 H 12.522 Z M 6.2599999,5 H 11.477 v 7 H 6.2609999 V 5 Z M 24,24 H 0 V 0 H 5.2169999 V 19 H 18.783 V 18 H 6.2599999 V 13 H 24 Z"
     id="path109" />
</svg>
