<?xml version="1.0" encoding="UTF-8"?>
<svg width="61px" height="61px" viewBox="0 0 61 61" version="1.1" xmlns="http://www.w3.org/2000/svg"
>
    <!-- Generator: Sketch 52.3 (67297) - http://www.bohemiancoding.com/sketch -->
    <title>chrome-Features</title>
    <desc>Created with Sketch.</desc>
    <g id="Page-1" stroke="none" stroke-width="1" fill="none" fill-rule="evenodd">
        <g id="0-0-12-Homepage@2x" transform="translate(-290.000000, -2442.000000)" fill-rule="nonzero">
            <g id="Features" transform="translate(160.000000, 2263.000000)">
                <g id="Group-24" transform="translate(0.000000, 113.000000)">
                    <g id="Group-12-Copy" transform="translate(37.000000, 66.000000)">
                        <g id="chrome-Features" transform="translate(93.000000, 0.000000)">
                            <path d="M30.4337774,18.997113 C36.7364144,18.997113 41.8445377,24.1092055 41.8445377,30.4078733 C41.8445377,36.7123904 36.7362055,41.8186336 30.4337774,41.8186336 C24.1349007,41.8186336 19.0230171,36.7103014 19.0230171,30.4078733 C19.0230171,24.1092055 24.1351096,18.997113 30.4337774,18.997113 Z"
                                  id="Shape" fill="#dc3545"></path>
                            <path d="M30.4337774,45.6242397 C22.7352432,45.6242397 16.3889452,39.9036096 15.3772226,32.4789486 L4.88877397,14.2919658 L4.87728425,14.2654349 L3.70386986,15.9598562 C3.41474658,16.4904726 3.13335274,17.0286096 2.87472945,17.5782363 L2.31361301,18.8905719 C2.12727055,19.3432671 1.94280822,19.8016027 1.77735616,20.269339 C1.5910137,20.7884658 1.42932192,21.3134418 1.27535959,21.8402979 L0.936934932,23.0517329 C0.796133562,23.6166096 0.676431507,24.1814863 0.568010274,24.7501233 L0.362657534,25.9500685 C0.278886986,26.5072158 0.214335616,27.0608116 0.164825342,27.6141986 L0.0660136986,28.9396952 C0.0413630137,29.445661 0.0317534247,29.9495377 0.0317534247,30.4555034 C0.0317534247,30.9614692 0.0392739726,31.467226 0.0660136986,31.9713116 L0.164825342,33.2968082 C0.216215753,33.8501952 0.28264726,34.4075514 0.362657534,34.9609384 L0.568010274,36.1608836 C0.678311644,36.7295205 0.796133562,37.2943973 0.936934932,37.859274 L1.27535959,39.0707089 C1.43141096,39.5938048 1.5910137,40.1223322 1.77735616,40.6416678 C1.94280822,41.1056438 2.12915068,41.5620993 2.31361301,42.0204349 C2.49619521,42.4578801 2.67104795,42.8972055 2.87472945,43.3306815 C3.13335274,43.8803082 3.41474658,44.4146849 3.70575,44.9509418 L4.08428425,45.6946404 L4.25934589,45.9666336 C4.59401027,46.5390308 4.96293493,47.0848973 5.33582877,47.6307637 L5.93308562,48.5188151 C6.29260959,49.0095308 6.68618493,49.4772671 7.07996918,49.9489726 L7.86732877,50.8921747 C8.2097226,51.2667397 8.57676712,51.6243836 8.93796233,51.9839075 C9.29936644,52.3471918 9.65492123,52.7198767 10.0315753,53.0564212 L10.9747774,53.8475411 C11.4464829,54.2373562 11.9142192,54.6311404 12.4049349,54.9923356 L13.2854658,55.5933527 C13.8332123,55.9679178 14.382839,56.3370514 14.9495959,56.6698356 L15.2197089,56.8448973 L15.9613185,57.2234315 C16.4938151,57.5125548 17.0300719,57.799589 17.5796986,58.0563322 L17.7376301,58.1380137 L18.5078596,58.4536678 C20.5655651,59.3304384 22.7145616,59.9504658 24.9055479,60.3592911 L33.5871849,45.3046164 C32.569613,45.5082979 31.5159007,45.6242397 30.4337774,45.6242397 Z"
                                  id="Shape" fill="#0052CC"></path>
                            <path d="M60.7599692,28.3349178 L60.7200685,27.8329212 C60.5051062,25.2920205 59.4610034,21.6140548 58.5938425,19.1454349 L40.6351918,19.1454349 C43.7065,21.9278288 45.6482637,25.9348185 45.6482637,30.4078733 C45.6482637,35.2346027 43.3946062,39.5269555 39.8952534,42.3131096 L29.1976918,60.867137 C32.9594281,60.867137 38.0238904,60.1881986 41.6678048,58.7315103 L41.791476,58.6916096 L41.9855479,58.6099281 C43.2274829,58.0945616 44.4560479,57.5296849 45.6522329,56.8373767 C46.7228664,56.2211096 47.7251884,55.5290103 48.69325,54.8062021 L48.7484007,54.7625411 C49.6803219,54.056863 50.5531233,53.3058527 51.3862329,52.514524 L51.5155445,52.4023425 L51.9358596,51.9745068 C53.7767226,50.1315548 55.3572911,48.0968288 56.6466473,45.9020822 L56.793089,45.6871199 L57.0573527,45.1527432 C57.4720274,44.3996438 57.8562021,43.6294144 58.2061164,42.8458151 L58.6548425,41.7902226 C58.9514863,41.046524 59.2101096,40.2934247 59.4478425,39.5309247 L59.7616164,38.5494932 C60.0526199,37.4901404 60.2903527,36.421387 60.4672945,35.3392637 L60.5414555,34.7229966 C60.6726473,33.7948356 60.7658185,32.8610342 60.8134486,31.9178322 L60.8305788,31.1628527 C60.8456199,30.223411 60.8266096,29.2783288 60.7599692,28.3349178 Z"
                                  id="Shape" fill="#3384FF"></path>
                            <path d="M56.77575,15.1935959 C56.1385925,14.0905822 55.4253938,13.0617295 54.6760548,12.0690171 L54.4308014,11.7646438 C53.7575034,10.8956027 53.0443048,10.0702226 52.2912055,9.29414384 L51.7814795,8.77104795 C50.9542192,7.95715753 50.0964589,7.18483904 49.1969178,6.47936986 L48.9990856,6.31203767 C47.9967637,5.53992808 46.9470205,4.84573973 45.8648973,4.21046233 L45.6480548,4.06590068 L44.8245548,3.63806507 C44.349089,3.38132192 43.8755034,3.12457877 43.3868767,2.89436644 C42.9170514,2.67564384 42.4436747,2.48157192 41.970089,2.28582877 L40.7776644,1.81036301 C40.2015068,1.60313014 39.6195,1.42806849 39.035613,1.24924658 L38.0656712,0.96785274 C37.4303938,0.804280822 36.789476,0.674969178 36.1506473,0.551297945 L35.2454658,0.372476027 C34.6216781,0.271784247 33.9978904,0.20890411 33.3722226,0.149993151 L32.3471301,0.0453321918 C31.8108733,0.0110719178 31.2764966,0.0148321918 30.7362705,0.00731164384 L29.4164144,0 L28.3894418,0.0741609589 C26.1186541,0.226243151 23.8478664,0.631308219 21.6171884,1.3064863 L21.1550925,1.43203767 C20.5902158,1.61461986 20.0330685,1.83710274 19.4738322,2.05582534 L18.4013185,2.47990068 C17.9411027,2.67585274 17.4865274,2.90585616 17.0300719,3.13230822 C16.5888664,3.34915068 16.1457808,3.56787329 15.7120959,3.80936644 L15.2176199,4.06234932 L14.4872911,4.53405479 C14.0554863,4.80040753 13.6276507,5.07219178 13.2073356,5.36131507 C12.7966301,5.64855822 12.3915651,5.94144178 11.9959007,6.24184589 L10.9499178,7.07683562 C10.518113,7.43823973 10.0980068,7.80528425 9.6889726,8.18548973 L8.91310274,8.94234932 C8.46228767,9.39504452 8.02108219,9.85526027 7.6047363,10.330726 L7.32146233,10.6731199 L15.9765685,25.6878938 C17.9638733,19.6002192 23.6826233,15.1938048 30.4360753,15.1938048 C30.4356575,15.1935959 56.77575,15.1935959 56.77575,15.1935959 Z"
                                  id="Shape" fill="#74ABFF"></path>
                        </g>
                    </g>
                </g>
            </g>
        </g>
    </g>
</svg>