<?xml version="1.0" encoding="UTF-8" standalone="no"?>
<svg width="270.933mm" height="16.1396mm"
 xmlns="http://www.w3.org/2000/svg" xmlns:xlink="http://www.w3.org/1999/xlink"  version="1.2" baseProfile="tiny">
<desc>Created by EvoPdf</desc>
<defs>
</defs>
<g fill="none" stroke="black" stroke-width="1" fill-rule="evenodd" stroke-linecap="square" stroke-linejoin="bevel" >

<g fill="#000000" fill-opacity="1" stroke="#000000" stroke-opacity="1" stroke-width="1" stroke-linecap="square" stroke-linejoin="miter" stroke-miterlimit="2" transform="matrix(1,0,0,1,0,0)"
>
</g>

<g fill="#000000" fill-opacity="1" stroke="#000000" stroke-opacity="1" stroke-width="1" stroke-linecap="square" stroke-linejoin="miter" stroke-miterlimit="2" transform="matrix(1,0,0,1,0,0)"
>
</g>

<g fill="#000000" fill-opacity="1" stroke="#000000" stroke-opacity="1" stroke-width="1" stroke-linecap="square" stroke-linejoin="miter" stroke-miterlimit="2" transform="matrix(1,0,0,1,0,0)"
>
</g>

<g fill="#000000" fill-opacity="1" stroke="#000000" stroke-opacity="1" stroke-width="1" stroke-linecap="square" stroke-linejoin="miter" stroke-miterlimit="2" transform="matrix(1,0,0,1,0,0)"
>
</g>

<g fill="#000000" fill-opacity="1" stroke="#000000" stroke-opacity="1" stroke-width="1" stroke-linecap="square" stroke-linejoin="miter" stroke-miterlimit="2" transform="matrix(1,0,0,1,-290,-2442)"
>
</g>

<g fill="#000000" fill-opacity="1" stroke="#000000" stroke-opacity="1" stroke-width="1" stroke-linecap="square" stroke-linejoin="miter" stroke-miterlimit="2" transform="matrix(1,0,0,1,-130,-179)"
>
</g>

<g fill="#000000" fill-opacity="1" stroke="#000000" stroke-opacity="1" stroke-width="1" stroke-linecap="square" stroke-linejoin="miter" stroke-miterlimit="2" transform="matrix(1,0,0,1,-130,-66)"
>
</g>

<g fill="#000000" fill-opacity="1" stroke="#000000" stroke-opacity="1" stroke-width="1" stroke-linecap="square" stroke-linejoin="miter" stroke-miterlimit="2" transform="matrix(1,0,0,1,-93,0)"
>
</g>

<g fill="#000000" fill-opacity="1" stroke="#000000" stroke-opacity="1" stroke-width="1" stroke-linecap="square" stroke-linejoin="miter" stroke-miterlimit="2" transform="matrix(1,0,0,1,0,0)"
>
</g>

<g fill="#dc3545" fill-opacity="1" stroke="none" transform="matrix(1,0,0,1,0,0)"
>
<path vector-effect="none" fill-rule="nonzero" d="M30.4338,18.9971 C36.7364,18.9971 41.8445,24.1092 41.8445,30.4079 C41.8445,36.7124 36.7362,41.8186 30.4338,41.8186 C24.1349,41.8186 19.023,36.7103 19.023,30.4079 C19.023,24.1092 24.1351,18.9971 30.4338,18.9971 "/>
</g>

<g fill="#000000" fill-opacity="1" stroke="#000000" stroke-opacity="1" stroke-width="1" stroke-linecap="square" stroke-linejoin="miter" stroke-miterlimit="2" transform="matrix(1,0,0,1,0,0)"
>
</g>

<g fill="#0052cc" fill-opacity="1" stroke="none" transform="matrix(1,0,0,1,0,0)"
>
<path vector-effect="none" fill-rule="nonzero" d="M30.4338,45.6242 C22.7352,45.6242 16.3889,39.9036 15.3772,32.479 L4.88877,14.292 L4.87728,14.2654 L3.70387,15.9599 C3.41475,16.4905 3.13335,17.0286 2.87473,17.5782 L2.31361,18.8906 C2.12727,19.3433 1.94281,19.8016 1.77736,20.2693 C1.59101,20.7885 1.42932,21.3134 1.27536,21.8403 L0.936935,23.0517 C0.796133,23.6166 0.676431,24.1815 0.56801,24.7501 L0.362658,25.9501 C0.278887,26.5072 0.214336,27.0608 0.164825,27.6142 L0.0660137,28.9397 C0.041363,29.4457 0.0317534,29.9495 0.0317534,30.4555 C0.0317534,30.9615 0.039274,31.4672 0.0660137,31.9713 L0.164825,33.2968 C0.216216,33.8502 0.282647,34.4076 0.362658,34.9609 L0.56801,36.1609 C0.678312,36.7295 0.796133,37.2944 0.936935,37.8593 L1.27536,39.0707 C1.43141,39.5938 1.59101,40.1223 1.77736,40.6417 C1.94281,41.1056 2.12915,41.5621 2.31361,42.0204 C2.4962,42.4579 2.67105,42.8972 2.87473,43.3307 C3.13335,43.8803 3.41475,44.4147 3.70575,44.9509 L4.08428,45.6946 L4.25935,45.9666 C4.59401,46.539 4.96293,47.0849 5.33583,47.6308 L5.93309,48.5188 C6.29261,49.0095 6.68618,49.4773 7.07997,49.949 L7.86733,50.8922 C8.20972,51.2667 8.57677,51.6244 8.93796,51.9839 C9.29937,52.3472 9.65492,52.7199 10.0316,53.0564 L10.9748,53.8475 C11.4465,54.2374 11.9142,54.6311 12.4049,54.9923 L13.2855,55.5934 C13.8332,55.9679 14.3828,56.3371 14.9496,56.6698 L15.2197,56.8449 L15.9613,57.2234 C16.4938,57.5126 17.0301,57.7996 17.5797,58.0563 L17.7376,58.138 L18.5079,58.4537 C20.5656,59.3304 22.7146,59.9505 24.9055,60.3593 L33.5872,45.3046 C32.5696,45.5083 31.5159,45.6242 30.4338,45.6242 "/>
</g>

<g fill="#000000" fill-opacity="1" stroke="#000000" stroke-opacity="1" stroke-width="1" stroke-linecap="square" stroke-linejoin="miter" stroke-miterlimit="2" transform="matrix(1,0,0,1,0,0)"
>
</g>

<g fill="#3384ff" fill-opacity="1" stroke="none" transform="matrix(1,0,0,1,0,0)"
>
<path vector-effect="none" fill-rule="nonzero" d="M60.76,28.3349 L60.7201,27.8329 C60.5051,25.292 59.461,21.6141 58.5938,19.1454 L40.6352,19.1454 C43.7065,21.9278 45.6483,25.9348 45.6483,30.4079 C45.6483,35.2346 43.3946,39.527 39.8953,42.3131 L29.1977,60.8671 C32.9594,60.8671 38.0239,60.1882 41.6678,58.7315 L41.7915,58.6916 L41.9855,58.6099 C43.2275,58.0946 44.456,57.5297 45.6522,56.8374 C46.7229,56.2211 47.7252,55.529 48.6932,54.8062 L48.7484,54.7625 C49.6803,54.0569 50.5531,53.3059 51.3862,52.5145 L51.5155,52.4023 L51.9359,51.9745 C53.7767,50.1316 55.3573,48.0968 56.6466,45.9021 L56.7931,45.6871 L57.0574,45.1527 C57.472,44.3996 57.8562,43.6294 58.2061,42.8458 L58.6548,41.7902 C58.9515,41.0465 59.2101,40.2934 59.4478,39.5309 L59.7616,38.5495 C60.0526,37.4901 60.2904,36.4214 60.4673,35.3393 L60.5415,34.723 C60.6726,33.7948 60.7658,32.861 60.8134,31.9178 L60.8306,31.1629 C60.8456,30.2234 60.8266,29.2783 60.76,28.3349 "/>
</g>

<g fill="#000000" fill-opacity="1" stroke="#000000" stroke-opacity="1" stroke-width="1" stroke-linecap="square" stroke-linejoin="miter" stroke-miterlimit="2" transform="matrix(1,0,0,1,0,0)"
>
</g>

<g fill="#74abff" fill-opacity="1" stroke="none" transform="matrix(1,0,0,1,0,0)"
>
<path vector-effect="none" fill-rule="nonzero" d="M56.7757,15.1936 C56.1386,14.0906 55.4254,13.0617 54.6761,12.069 L54.4308,11.7646 C53.7575,10.8956 53.0443,10.0702 52.2912,9.29414 L51.7815,8.77105 C50.9542,7.95716 50.0965,7.18484 49.1969,6.47937 L48.9991,6.31204 C47.9968,5.53993 46.947,4.84574 45.8649,4.21046 L45.6481,4.0659 L44.8246,3.63807 C44.3491,3.38132 43.8755,3.12458 43.3869,2.89437 C42.9171,2.67564 42.4437,2.48157 41.9701,2.28583 L40.7777,1.81036 C40.2015,1.60313 39.6195,1.42807 39.0356,1.24925 L38.0657,0.967853 C37.4304,0.804281 36.7895,0.674969 36.1506,0.551298 L35.2455,0.372476 C34.6217,0.271784 33.9979,0.208904 33.3722,0.149993 L32.3471,0.0453322 C31.8109,0.0110719 31.2765,0.0148322 30.7363,0.00731164 L29.4164,0 L28.3894,0.074161 C26.1187,0.226243 23.8479,0.631308 21.6172,1.30649 L21.1551,1.43204 C20.5902,1.61462 20.0331,1.8371 19.4738,2.05583 L18.4013,2.4799 C17.9411,2.67585 17.4865,2.90586 17.0301,3.13231 C16.5889,3.34915 16.1458,3.56787 15.7121,3.80937 L15.2176,4.06235 L14.4873,4.53405 C14.0555,4.80041 13.6277,5.07219 13.2073,5.36132 C12.7966,5.64856 12.3916,5.94144 11.9959,6.24185 L10.9499,7.07684 C10.5181,7.43824 10.098,7.80528 9.68897,8.18549 L8.9131,8.94235 C8.46229,9.39504 8.02108,9.85526 7.60474,10.3307 L7.32146,10.6731 L15.9766,25.6879 C17.9639,19.6002 23.6826,15.1938 30.4361,15.1938 C30.4357,15.1936 56.7757,15.1936 56.7757,15.1936 "/>
</g>

<g fill="#000000" fill-opacity="1" stroke="#000000" stroke-opacity="1" stroke-width="1" stroke-linecap="square" stroke-linejoin="miter" stroke-miterlimit="2" transform="matrix(1,0,0,1,0,0)"
>
</g>

<g fill="#000000" fill-opacity="1" stroke="#000000" stroke-opacity="1" stroke-width="1" stroke-linecap="square" stroke-linejoin="miter" stroke-miterlimit="2" transform="matrix(1,0,0,1,-93,0)"
>
</g>

<g fill="#000000" fill-opacity="1" stroke="#000000" stroke-opacity="1" stroke-width="1" stroke-linecap="square" stroke-linejoin="miter" stroke-miterlimit="2" transform="matrix(1,0,0,1,-130,-66)"
>
</g>

<g fill="#000000" fill-opacity="1" stroke="#000000" stroke-opacity="1" stroke-width="1" stroke-linecap="square" stroke-linejoin="miter" stroke-miterlimit="2" transform="matrix(1,0,0,1,-130,-179)"
>
</g>

<g fill="#000000" fill-opacity="1" stroke="#000000" stroke-opacity="1" stroke-width="1" stroke-linecap="square" stroke-linejoin="miter" stroke-miterlimit="2" transform="matrix(1,0,0,1,-290,-2442)"
>
</g>

<g fill="#000000" fill-opacity="1" stroke="#000000" stroke-opacity="1" stroke-width="1" stroke-linecap="square" stroke-linejoin="miter" stroke-miterlimit="2" transform="matrix(1,0,0,1,0,0)"
>
</g>

<g fill="#000000" fill-opacity="1" stroke="#000000" stroke-opacity="1" stroke-width="1" stroke-linecap="square" stroke-linejoin="miter" stroke-miterlimit="2" transform="matrix(1,0,0,1,0,0)"
>
</g>

<g fill="#000000" fill-opacity="1" stroke="#000000" stroke-opacity="1" stroke-width="1" stroke-linecap="square" stroke-linejoin="miter" stroke-miterlimit="2" transform="matrix(1,0,0,1,0,0)"
>
</g>

<g fill="#000000" fill-opacity="1" stroke="#000000" stroke-opacity="1" stroke-width="1" stroke-linecap="square" stroke-linejoin="miter" stroke-miterlimit="2" transform="matrix(1,0,0,1,0,0)"
>
</g>

<g fill="#000000" fill-opacity="1" stroke="#000000" stroke-opacity="1" stroke-width="1" stroke-linecap="square" stroke-linejoin="miter" stroke-miterlimit="2" transform="matrix(1,0,0,1,0,0)"
>
</g>

<g fill="#000000" fill-opacity="1" stroke="#000000" stroke-opacity="1" stroke-width="1" stroke-linecap="square" stroke-linejoin="miter" stroke-miterlimit="2" transform="matrix(1,0,0,1,0,0)"
>
</g>

<g fill="#000000" fill-opacity="1" stroke="#000000" stroke-opacity="1" stroke-width="1" stroke-linecap="square" stroke-linejoin="miter" stroke-miterlimit="2" transform="matrix(1,0,0,1,0,0)"
>
</g>

<g fill="#000000" fill-opacity="1" stroke="#000000" stroke-opacity="1" stroke-width="1" stroke-linecap="square" stroke-linejoin="miter" stroke-miterlimit="2" transform="matrix(1,0,0,1,-290,-2442)"
>
</g>

<g fill="#000000" fill-opacity="1" stroke="#000000" stroke-opacity="1" stroke-width="1" stroke-linecap="square" stroke-linejoin="miter" stroke-miterlimit="2" transform="matrix(1,0,0,1,-130,-179)"
>
</g>

<g fill="#000000" fill-opacity="1" stroke="#000000" stroke-opacity="1" stroke-width="1" stroke-linecap="square" stroke-linejoin="miter" stroke-miterlimit="2" transform="matrix(1,0,0,1,-130,-66)"
>
</g>

<g fill="#000000" fill-opacity="1" stroke="#000000" stroke-opacity="1" stroke-width="1" stroke-linecap="square" stroke-linejoin="miter" stroke-miterlimit="2" transform="matrix(1,0,0,1,-93,0)"
>
</g>

<g fill="#000000" fill-opacity="1" stroke="#000000" stroke-opacity="1" stroke-width="1" stroke-linecap="square" stroke-linejoin="miter" stroke-miterlimit="2" transform="matrix(1,0,0,1,-93,0)"
>
</g>

<g fill="#000000" fill-opacity="1" stroke="#000000" stroke-opacity="1" stroke-width="1" stroke-linecap="square" stroke-linejoin="miter" stroke-miterlimit="2" transform="matrix(1,0,0,1,-130,-66)"
>
</g>

<g fill="#000000" fill-opacity="1" stroke="#000000" stroke-opacity="1" stroke-width="1" stroke-linecap="square" stroke-linejoin="miter" stroke-miterlimit="2" transform="matrix(1,0,0,1,-130,-179)"
>
</g>

<g fill="#000000" fill-opacity="1" stroke="#000000" stroke-opacity="1" stroke-width="1" stroke-linecap="square" stroke-linejoin="miter" stroke-miterlimit="2" transform="matrix(1,0,0,1,-290,-2442)"
>
</g>

<g fill="#000000" fill-opacity="1" stroke="#000000" stroke-opacity="1" stroke-width="1" stroke-linecap="square" stroke-linejoin="miter" stroke-miterlimit="2" transform="matrix(1,0,0,1,0,0)"
>
</g>

<g fill="#000000" fill-opacity="1" stroke="#000000" stroke-opacity="1" stroke-width="1" stroke-linecap="square" stroke-linejoin="miter" stroke-miterlimit="2" transform="matrix(1,0,0,1,0,0)"
>
</g>

<g fill="#000000" fill-opacity="1" stroke="#000000" stroke-opacity="1" stroke-width="1" stroke-linecap="square" stroke-linejoin="miter" stroke-miterlimit="2" transform="matrix(1,0,0,1,0,0)"
>
</g>

<g fill="#000000" fill-opacity="1" stroke="#000000" stroke-opacity="1" stroke-width="1" stroke-linecap="square" stroke-linejoin="miter" stroke-miterlimit="2" transform="matrix(1,0,0,1,0,0)"
>
</g>

<g fill="#000000" fill-opacity="1" stroke="#000000" stroke-opacity="1" stroke-width="1" stroke-linecap="square" stroke-linejoin="miter" stroke-miterlimit="2" transform="matrix(1,0,0,1,0,0)"
>
</g>

<g fill="#000000" fill-opacity="1" stroke="#000000" stroke-opacity="1" stroke-width="1" stroke-linecap="square" stroke-linejoin="miter" stroke-miterlimit="2" transform="matrix(1,0,0,1,0,0)"
>
</g>

<g fill="#000000" fill-opacity="1" stroke="#000000" stroke-opacity="1" stroke-width="1" stroke-linecap="square" stroke-linejoin="miter" stroke-miterlimit="2" transform="matrix(1,0,0,1,0,0)"
>
</g>

<g fill="#000000" fill-opacity="1" stroke="#000000" stroke-opacity="1" stroke-width="1" stroke-linecap="square" stroke-linejoin="miter" stroke-miterlimit="2" transform="matrix(1,0,0,1,0,0)"
>
</g>

<g fill="#000000" fill-opacity="1" stroke="#000000" stroke-opacity="1" stroke-width="1" stroke-linecap="square" stroke-linejoin="miter" stroke-miterlimit="2" transform="matrix(1,0,0,1,0,0)"
>
</g>
</g>
</svg>
