<?xml version="1.0" encoding="UTF-8"?>
<svg width="61px" height="61px" viewBox="0 0 61 61" version="1.1" xmlns="http://www.w3.org/2000/svg" xmlns:xlink="http://www.w3.org/1999/xlink">
    <!-- Generator: Sketch 51.3 (57544) - http://www.bohemiancoding.com/sketch -->
    <title>Scalability</title>
    <desc>Created with Sketch.</desc>
    <defs>
        <path d="M30.5,0 C13.6545879,0 0,13.6545879 0,30.5 C0,47.3454121 13.6545879,61 30.5,61 C47.3454121,61 61,47.3454121 61,30.5 C61,13.6545879 47.3454121,0 30.5,0 Z" id="path-1"></path>
    </defs>
    <g id="Final" stroke="none" stroke-width="1" fill="none" fill-rule="evenodd">
        <g id="0-0-12-Homepage@2x" transform="translate(-1092.000000, -2811.000000)">
            <g id="Group-20" transform="translate(960.000000, 2736.000000)">
                <g id="Scalability" transform="translate(132.000000, 75.000000)">
                    <g id="Rectangle-11">
                        <mask id="mask-2" fill="white">
                            <use xlink:href="#path-1"></use>
                        </mask>
                        <use id="Mask" fill="#0052CC" fill-rule="nonzero" xlink:href="#path-1"></use>
                        <polygon fill="#3384FF" fill-rule="nonzero" mask="url(#mask-2)" points="18.7460938 -15 74 -15 74 70 39 70"></polygon>
                    </g>
                    <g transform="translate(7.000000, 10.000000)" fill-rule="nonzero">
                        <path d="M34.9375,30.787234 C32.8542812,30.787234 31.0655312,32.0578723 30.2888594,33.8723404 L23.3359375,33.8723404 C20.3575,33.8723404 20.0803281,31.3348936 20.0664062,30.5744681 L20.0664062,22.3438298 C20.975125,22.7676596 22.0568125,23.0212766 23.3359375,23.0212766 L30.2888594,23.0212766 C31.0651094,24.8357447 32.8542812,26.106383 34.9375,26.106383 C37.7332656,26.106383 40,23.8208511 40,21 C40,18.1808511 37.7332656,15.893617 34.9375,15.893617 C32.8542812,15.893617 31.0655312,17.1642553 30.2888594,18.9787234 L23.3359375,18.9787234 C20.3575,18.9787234 20.0803281,16.4412766 20.0664062,15.6808511 C17.2463675,15.7581352 15.91043,15.8290572 16.0585938,15.893617 L16.0585937,30.5744681 C16.0585937,33.5251064 17.9966875,37.9148936 23.3359375,37.9148936 L30.2888594,37.9148936 C31.0651094,39.7293617 32.8542812,41 34.9375,41 C37.7332656,41 40,38.7144681 40,35.893617 C40,33.0744681 37.7332656,30.787234 34.9375,30.787234 Z" id="Shape" fill="#FFFFFF"></path>
                        <path d="M0.0474999206,23.0212766 L7.0004218,23.0212766 C7.7766718,24.8357447 9.56584367,26.106383 11.6490624,26.106383 C14.444828,26.106383 16.7115624,23.8208511 16.7115624,21 C16.7115624,18.1808511 14.444828,15.893617 11.6490624,15.893617 C9.56584367,15.893617 7.77709367,17.1642553 7.0004218,18.9787234 L0.0474999206,18.9787234 L0.0474999206,23.0212766 Z" id="Shape" fill="#FFFFFF" transform="translate(8.379531, 21.000000) scale(-1, 1) translate(-8.379531, -21.000000) "></path>
                        <path d="M34.9375,15.787234 C32.8542813,15.787234 31.0655313,17.0578723 30.2888594,18.8723404 L23.3359375,18.8723404 C20.3575,18.8723404 20.0803281,16.3348936 20.0664063,15.5744681 L20.0664063,7.34382979 C20.975125,7.76765957 22.0568125,7.71027001 23.3359375,7.71027001 L30.2888594,7.71027001 L30.2888594,3.61041649 L23.3359375,3.61041649 C20.3575,3.61041649 20.0803281,1.4412766 20.0664063,0.680851064 C17.2463675,0.758135165 15.91043,0.829057151 16.0585938,0.893617021 L16.0585938,15.5744681 C16.0585938,18.5251064 17.9966875,22.9148936 23.3359375,22.9148936 L30.2888594,22.9148936 C31.0651094,24.7293617 32.8542813,26 34.9375,26 C37.7332656,26 40,23.7144681 40,20.893617 C40,18.0744681 37.7332656,15.787234 34.9375,15.787234 Z" id="Shape" fill="#FFFFFF" transform="translate(28.023750, 13.340426) scale(1, -1) translate(-28.023750, -13.340426) "></path>
                        <path d="M34.9375,18.0544681 C36.5503281,18.0544681 37.8581406,19.373617 37.8581406,21 C37.8581406,22.627234 36.5503281,23.946383 34.9375,23.946383 C33.3250937,23.946383 32.0168594,22.627234 32.0168594,21 C32.0168594,19.373617 33.3250937,18.0544681 34.9375,18.0544681 Z" id="Path" fill="#dc3545"></path>
                        <path d="M4.9375,18.0544681 C6.55032812,18.0544681 7.85814062,19.373617 7.85814062,21 C7.85814062,22.627234 6.55032812,23.946383 4.9375,23.946383 C3.32509375,23.946383 2.01685937,22.627234 2.01685937,21 C2.01685937,19.373617 3.32509375,18.0544681 4.9375,18.0544681 Z" id="Path" fill="#dc3545"></path>
                        <path d="M34.9206406,3 C36.5334687,3 37.8412812,4.31914894 37.8412812,5.94553191 C37.8412812,7.57276596 36.5334687,8.89191489 34.9206406,8.89191489 C33.3082344,8.89191489 32,7.57276596 32,5.94553191 C32,4.31914894 33.3082344,3 34.9206406,3 Z" id="Path" fill="#dc3545"></path>
                        <path d="M34.9375,38.84 C33.3250937,38.84 32.0168594,37.5208511 32.0168594,35.893617 C32.0168594,34.267234 33.3250937,32.9480851 34.9375,32.9480851 C36.5503281,32.9480851 37.8581406,34.267234 37.8581406,35.893617 C37.8581406,37.5208511 36.5503281,38.84 34.9375,38.84 Z" id="Path" fill="#dc3545"></path>
                    </g>
                </g>
            </g>
        </g>
    </g>
</svg>