<?xml version="1.0" encoding="UTF-8"?>
<svg width="61px" height="61px" viewBox="0 0 61 61" version="1.1" xmlns="http://www.w3.org/2000/svg" xmlns:xlink="http://www.w3.org/1999/xlink">
    <!-- Generator: Sketch 51.3 (57544) - http://www.bohemiancoding.com/sketch -->
    <title>CaptureTiming</title>
    <desc>Created with Sketch.</desc>
    <defs>
        <path d="M30.5,0 C13.6545879,0 0,13.6545879 0,30.5 C0,47.3454121 13.6545879,61 30.5,61 C47.3454121,61 61,47.3454121 61,30.5 C61,13.6545879 47.3454121,0 30.5,0 Z" id="path-1"></path>
    </defs>
    <g id="Final" stroke="none" stroke-width="1" fill="none" fill-rule="evenodd">
        <g id="0-0-12-Homepage@2x" transform="translate(-690.000000, -2811.000000)">
            <g id="Group-21" transform="translate(560.000000, 2736.000000)">
                <g id="Group-12-Copy" transform="translate(40.000000, 75.000000)">
                    <g id="CaptureTiming" transform="translate(90.000000, 0.000000)">
                        <g id="Group-3">
                            <g id="Rectangle-11">
                                <mask id="mask-2" fill="white">
                                    <use xlink:href="#path-1"></use>
                                </mask>
                                <use id="Mask" fill="#0052CC" fill-rule="nonzero" xlink:href="#path-1"></use>
                                <polygon fill="#3384FF" fill-rule="nonzero" mask="url(#mask-2)" points="18.7460938 -15 74 -15 74 70 39 70"></polygon>
                            </g>
                        </g>
                        <g transform="translate(11.000000, 11.000000)" fill-rule="nonzero" id="Shape">
                            <path d="M20,0 C19.6313333,0 19.3333333,0.298 19.3333333,0.666666667 L19.3333333,9.528 C19.3333333,9.89666667 19.6313333,10.1946667 20,10.1946667 C20.3686667,10.1946667 20.6666667,9.89666667 20.6666667,9.528 L20.6666667,1.34533333 C30.6526667,1.69733333 38.6666667,9.93066667 38.6666667,20 C38.6666667,30.2926667 30.2926667,38.6666667 20,38.6666667 C9.70733333,38.6666667 1.33333333,30.2926667 1.33333333,20 C1.33333333,15.0266667 3.26666667,10.3473333 6.77733333,6.824 C7.038,6.56266667 7.03666667,6.14133333 6.776,5.88133333 C6.51466667,5.62266667 6.09333333,5.62266667 5.83333333,5.88266667 C2.07133333,9.65733333 0,14.6713333 0,20 C0,31.028 8.972,40 20,40 C31.028,40 40,31.028 40,20 C40,8.972 31.028,0 20,0 Z" stroke="#FFFFFF" stroke-width="2" fill="#FFFFFF"></path>
                            <path d="M20.1664277,23.8988791 C20.6674238,24.5882048 21.4759176,25 22.328661,25 C23.0411555,25 23.7124004,24.7217195 24.2171465,24.216914 C24.7698922,23.6641034 25.05264,22.8997694 24.9918905,22.1189337 C24.931141,21.338098 24.532894,20.6262699 23.8976489,20.1642192 L14.1897237,13.1411982 C13.892726,12.9266747 13.4809792,12.9596783 13.2199812,13.2192068 C12.9589832,13.4802354 12.9267334,13.8912805 13.1419818,14.1890632 L20.1664277,23.8988791 Z" stroke="#ffffff" stroke-width="2" fill="#dc3545"></path>
                        </g>
                    </g>
                </g>
            </g>
        </g>
    </g>
</svg>