<?xml version="1.0" encoding="UTF-8"?>
<svg width="61px" height="61px" viewBox="0 0 61 61" version="1.1" xmlns="http://www.w3.org/2000/svg">
    <!-- Generator: Sketch 51.3 (57544) - http://www.bohemiancoding.com/sketch -->
    <title>Viewport</title>
    <desc>Created with Sketch.</desc>
    <defs></defs>
    <g id="Final" stroke="none" stroke-width="1" fill="none" fill-rule="evenodd">
        <g id="0-0-12-Homepage@2x" transform="translate(-1090.000000, -2442.000000)" fill-rule="nonzero">
            <g id="Group-22" transform="translate(960.000000, 2376.000000)">
                <g id="Group-12-Copy" transform="translate(40.000000, 66.000000)">
                    <g id="Viewport" transform="translate(90.000000, 0.000000)">
                        <circle id="Oval-8" fill="#0052CC" cx="30.5" cy="30.5" r="30.5"></circle>
                        <g id="Scale" transform="translate(10.000000, 10.000000)">
                            <g id="Group-25" transform="translate(10.000000, 11.000000)">
                                <path d="M20.3823529,0 L0.617647059,0 C0.276551471,0 0,0.276551471 0,0.617647059 L0,20.3823529 C0,20.7234485 0.276551471,21 0.617647059,21 L20.3823529,21 C20.7234485,21 21,20.7234485 21,20.3823529 L21,0.617647059 C21,0.276551471 20.7234485,0 20.3823529,0 Z" id="Shape" stroke="#FFFFFF" stroke-width="2" fill="#dc3545"></path>
                                <path d="M3.23529412,18.3235294 C2.92668382,18.3235294 2.67647059,18.0733162 2.67647059,17.7647059 L2.67647059,1 L1.55882353,1 C1.25021324,1 1,1.25021324 1,1.55882353 L1,19.4411765 C1,19.7497868 1.25021324,20 1.55882353,20 L19.4411765,20 C19.7497868,20 20,19.7497868 20,19.4411765 L20,18.3235294 L3.23529412,18.3235294 Z" id="Shape" fill="#dc3545"></path>
                            </g>
                            <g id="Group" fill="#FFFFFF">
                                <path d="M40.703125,4.765625 L38.238582,4.765625 L41.3771035,1.62710352 C41.749418,1.25478906 41.749418,0.651460937 41.3771035,0.279146484 C41.0049082,-0.0929296875 40.4014609,-0.0929296875 40.0292656,0.279146484 L36.890625,3.41766797 L36.890625,0.953125 C36.890625,0.426761719 36.4638633,0 35.9375,0 C35.4111367,0 34.984375,0.426761719 34.984375,0.953125 L34.984375,5.71851172 C34.9842559,6.23701172 35.4188809,6.671875 35.9375,6.671875 L40.703125,6.671875 C41.2294883,6.671875 41.65625,6.24511328 41.65625,5.71875 C41.65625,5.19238672 41.2294883,4.765625 40.703125,4.765625 Z" id="Shape"></path>
                                <path d="M5.9049668,6.6534082 C6.34483398,6.56619727 6.67199414,6.16659961 6.671875,5.71839258 L6.671875,0.953125 C6.671875,0.426761719 6.24511328,0 5.71875,0 C5.19238672,0 4.765625,0.426761719 4.765625,0.953125 L4.765625,3.41766797 L1.62710352,0.279146484 C1.2549082,-0.0929296875 0.651460937,-0.0929296875 0.279265625,0.279146484 C-0.0930488281,0.651460938 -0.0930488281,1.25478906 0.279265625,1.62710352 L3.41766797,4.765625 L0.953125,4.765625 C0.426761719,4.765625 0,5.19238672 0,5.71875 C0,6.24511328 0.426761719,6.671875 0.953125,6.671875 L5.71875,6.671875 C5.78082227,6.671875 5.8439668,6.66544141 5.9049668,6.6534082 Z" id="Shape"></path>
                                <path d="M41.3771035,40.0291465 L38.238582,36.890625 L40.703125,36.890625 C41.2294883,36.890625 41.65625,36.4638633 41.65625,35.9375 C41.65625,35.4111367 41.2294883,34.984375 40.703125,34.984375 L35.9375,34.984375 C35.4188809,34.984375 34.9842559,35.4193574 34.984375,35.9377383 L34.984375,40.703125 C34.984375,41.2294883 35.4111367,41.65625 35.9375,41.65625 C36.4638633,41.65625 36.890625,41.2294883 36.890625,40.703125 L36.890625,38.238582 L40.0291465,41.3771035 C40.4205234,41.7683613 41.0809199,41.7370273 41.4354824,41.3128867 C41.7476309,40.9396191 41.7207051,40.372748 41.3771035,40.0291465 Z" id="Shape"></path>
                                <path d="M6.66710937,35.8432598 C6.61992969,35.3628848 6.20115039,34.984375 5.71875,34.984375 L0.953125,34.984375 C0.426761719,34.984375 0,35.4111367 0,35.9375 C0,36.4638633 0.426761719,36.890625 0.953125,36.890625 L3.41766797,36.890625 L0.279146484,40.0291465 C-0.0649316406,40.3733438 -0.0906660156,40.9389043 0.220648438,41.3130059 C0.574376953,41.7378613 1.23620313,41.7678848 1.62698438,41.3772227 L4.765625,38.238582 L4.765625,40.703125 C4.765625,41.2294883 5.19238672,41.65625 5.71875,41.65625 C6.24511328,41.65625 6.671875,41.2294883 6.671875,40.703125 L6.671875,35.9377383 C6.671875,35.9062852 6.67020703,35.8747129 6.66710937,35.8432598 Z" id="Shape"></path>
                            </g>
                        </g>
                    </g>
                </g>
            </g>
        </g>
    </g>
</svg>